<svg width="400" height="300" viewBox="0 0 400 300" fill="none" xmlns="http://www.w3.org/2000/svg">
  <rect width="400" height="300" fill="#FFF8E7"/>

  <!-- Sofa base -->
  <rect x="50" y="140" width="300" height="100" rx="12" fill="#5D4037"/>
  <rect x="60" y="125" width="280" height="25" rx="8" fill="#6D4C41"/>

  <!-- Cushions -->
  <rect x="70" y="150" width="80" height="70" rx="8" fill="#8D6E63"/>
  <rect x="160" y="150" width="80" height="70" rx="8" fill="#8D6E63"/>
  <rect x="250" y="150" width="80" height="70" rx="8" fill="#8D6E63"/>

  <!-- Back cushions -->
  <rect x="75" y="130" width="70" height="20" rx="5" fill="#A1887F"/>
  <rect x="165" y="130" width="70" height="20" rx="5" fill="#A1887F"/>
  <rect x="255" y="130" width="70" height="20" rx="5" fill="#A1887F"/>

  <!-- Legs -->
  <rect x="70" y="240" width="12" height="15" rx="2" fill="#3E2723"/>
  <rect x="318" y="240" width="12" height="15" rx="2" fill="#3E2723"/>

  <!-- Floor line -->
  <line x1="20" y1="255" x2="380" y2="255" stroke="#D7CCC8" stroke-width="2"/>

  <!-- Label -->
  <rect x="140" y="270" width="120" height="25" rx="12" fill="#5D4037"/>
  <text x="200" y="287" font-family="Arial" font-size="12" fill="white" text-anchor="middle" font-weight="bold">SALAS</text>
</svg>