<svg width="400" height="300" viewBox="0 0 400 300" fill="none" xmlns="http://www.w3.org/2000/svg">
  <rect width="400" height="300" fill="#FFF8E7"/>

  <!-- Desk top -->
  <rect x="50" y="140" width="300" height="15" rx="2" fill="#5D4037"/>

  <!-- Left leg with drawer -->
  <rect x="60" y="155" width="80" height="90" rx="4" fill="#6D4C41"/>
  <rect x="65" y="165" width="70" height="25" rx="2" fill="#8D6E63"/>
  <rect x="65" y="195" width="70" height="25" rx="2" fill="#8D6E63"/>
  <rect x="65" y="225" width="70" height="15" rx="2" fill="#8D6E63"/>

  <!-- Drawer handles -->
  <rect x="92" y="175" width="16" height="4" rx="2" fill="#D7CCC8"/>
  <rect x="92" y="205" width="16" height="4" rx="2" fill="#D7CCC8"/>

  <!-- Right leg -->
  <rect x="260" y="155" width="80" height="90" rx="4" fill="#6D4C41"/>

  <!-- Items on desk -->
  <!-- Monitor -->
  <rect x="170" y="80" width="80" height="55" rx="4" fill="#4E342E"/>
  <rect x="175" y="85" width="70" height="45" fill="#81D4FA"/>
  <rect x="200" y="135" width="20" height="5" fill="#5D4037"/>
  <rect x="190" y="138" width="40" height="3" rx="1" fill="#6D4C41"/>

  <!-- Lamp -->
  <rect x="290" y="115" width="8" height="25" fill="#FFCC80"/>
  <ellipse cx="294" y="115" rx="20" ry="12" fill="#FFE0B2"/>

  <!-- Plant -->
  <rect x="70" y="110" width="25" height="30" rx="4" fill="#A1887F"/>
  <ellipse cx="82" y="100" rx="18" ry="20" fill="#81C784"/>

  <!-- Floor line -->
  <line x1="20" y1="245" x2="380" y2="245" stroke="#D7CCC8" stroke-width="2"/>

  <!-- Label -->
  <rect x="100" y="260" width="200" height="25" rx="12" fill="#5D4037"/>
  <text x="200" y="277" font-family="Arial" font-size="12" fill="white" text-anchor="middle" font-weight="bold">ESCRITORIOS Y NOCHEROS</text>
</svg>