<svg width="600" height="400" viewBox="0 0 600 400" fill="none" xmlns="http://www.w3.org/2000/svg">
  <rect width="600" height="400" fill="#FFF8E7"/>

  <!-- Floor -->
  <rect x="0" y="320" width="600" height="80" fill="#D7CCC8"/>
  <path d="M0 320 L600 320" stroke="#BCAAA4" stroke-width="2"/>

  <!-- Wall decoration -->
  <rect x="50" y="40" width="120" height="80" rx="4" fill="#EFEBE9" stroke="#D7CCC8" stroke-width="2"/>
  <rect x="60" y="50" width="100" height="60" fill="#A1887F" opacity="0.3"/>

  <!-- Sofa -->
  <rect x="80" y="200" width="350" height="120" rx="12" fill="#5D4037"/>
  <rect x="90" y="180" width="330" height="30" rx="8" fill="#6D4C41"/>

  <!-- Sofa cushions -->
  <rect x="100" y="210" width="100" height="80" rx="8" fill="#8D6E63"/>
  <rect x="210" y="210" width="100" height="80" rx="8" fill="#8D6E63"/>
  <rect x="320" y="210" width="100" height="80" rx="8" fill="#8D6E63"/>

  <!-- Sofa back cushions -->
  <rect x="105" y="185" width="90" height="25" rx="6" fill="#A1887F"/>
  <rect x="215" y="185" width="90" height="25" rx="6" fill="#A1887F"/>
  <rect x="325" y="185" width="90" height="25" rx="6" fill="#A1887F"/>

  <!-- Sofa legs -->
  <rect x="100" y="320" width="15" height="20" rx="2" fill="#3E2723"/>
  <rect x="400" y="320" width="15" height="20" rx="2" fill="#3E2723"/>

  <!-- Side table -->
  <rect x="460" y="260" width="80" height="60" rx="4" fill="#4E342E"/>
  <rect x="465" y="255" width="70" height="10" rx="2" fill="#5D4037"/>

  <!-- Lamp on table -->
  <rect x="490" y="200" width="20" height="55" fill="#FFCC80"/>
  <ellipse cx="500" cy="200" rx="25" ry="15" fill="#FFE0B2"/>
  <rect x="495" y="255" width="10" height="5" fill="#5D4037"/>

  <!-- Plant -->
  <rect x="520" y="280" width="30" height="40" rx="4" fill="#A1887F"/>
  <ellipse cx="535" cy="260" rx="25" ry="30" fill="#81C784"/>
  <ellipse cx="525" cy="250" rx="15" ry="20" fill="#66BB6A"/>
  <ellipse cx="545" cy="255" rx="12" ry="18" fill="#4CAF50"/>

  <!-- Rug -->
  <ellipse cx="250" cy="350" rx="180" ry="30" fill="#BCAAA4" opacity="0.5"/>

  <!-- Coffee table -->
  <rect x="180" y="330" width="140" height="8" rx="2" fill="#5D4037"/>
  <rect x="190" y="338" width="5" height="20" fill="#4E342E"/>
  <rect x="305" y="338" width="5" height="20" fill="#4E342E"/>

  <!-- Decorative text area -->
  <rect x="400" y="50" width="150" height="100" rx="8" fill="#5D4037" opacity="0.1"/>
  <text x="475" y="90" font-family="Arial" font-size="14" fill="#5D4037" text-anchor="middle" font-weight="bold">Muebles Excalibur</text>
  <text x="475" y="110" font-family="Arial" font-size="12" fill="#8D6E63" text-anchor="middle">Quindío</text>
  <text x="475" y="135" font-family="Arial" font-size="10" fill="#A1887F" text-anchor="middle">Calidad y Confort</text>
</svg>