<svg width="300" height="200" viewBox="0 0 300 200" fill="none" xmlns="http://www.w3.org/2000/svg">
  <rect width="300" height="200" fill="#FFF8E7"/>

  <!-- Wall -->
  <rect x="0" y="0" width="300" height="170" fill="#EFEBE9"/>

  <!-- Floor -->
  <rect x="0" y="170" width="300" height="30" fill="#D7CCC8"/>

  <!-- Closet -->
  <rect x="30" y="15" width="240" height="155" rx="3" fill="#5D4037"/>

  <!-- Door 1 -->
  <rect x="35" y="20" width="55" height="145" rx="2" fill="#6D4C41"/>
  <rect x="38" y="23" width="49" height="139" fill="#8D6E63"/>
  <rect x="80" y="85" width="5" height="25" rx="2" fill="#D7CCC8"/>

  <!-- Door 2 -->
  <rect x="95" y="20" width="55" height="145" rx="2" fill="#6D4C41"/>
  <rect x="98" y="23" width="49" height="139" fill="#8D6E63"/>
  <rect x="97" y="85" width="5" height="25" rx="2" fill="#D7CCC8"/>

  <!-- Door 3 -->
  <rect x="155" y="20" width="55" height="145" rx="2" fill="#6D4C41"/>
  <rect x="158" y="23" width="49" height="139" fill="#8D6E63"/>
  <rect x="200" y="85" width="5" height="25" rx="2" fill="#D7CCC8"/>

  <!-- Door 4 -->
  <rect x="215" y="20" width="50" height="145" rx="2" fill="#6D4C41"/>
  <rect x="218" y="23" width="44" height="139" fill="#8D6E63"/>
  <rect x="217" y="85" width="5" height="25" rx="2" fill="#D7CCC8"/>

  <!-- Top trim -->
  <rect x="25" y="10" width="250" height="8" rx="2" fill="#4E342E"/>

  <!-- Checkmark badge -->
  <circle cx="270" cy="25" r="15" fill="#4CAF50"/>
  <path d="M263 25 L268 30 L278 20" stroke="white" stroke-width="3" fill="none"/>

  <!-- Label -->
  <text x="150" y="188" font-family="Arial" font-size="11" fill="#5D4037" text-anchor="middle" font-weight="bold">Resultado final</text>
</svg>